<svg xmlns="http://www.w3.org/2000/svg" viewBox="0 0 64 64">
  <circle cx="32" cy="32" r="31" fill="#fff"/>
  <circle cx="32" cy="32" r="30" fill="none" stroke="#000" stroke-width="2"/>
  <polygon points="32,20 39,25 36.5,33.5 27.5,33.5 25,25" fill="#000"/>
  <polygon points="16,25.5 22.5,22 25,25 20.5,32 14,30" fill="#000"/>
  <polygon points="48,25.5 41.5,22 39,25 43.5,32 50,30" fill="#000"/>
  <polygon points="22,45 27.5,39.5 36.5,39.5 42,45 32,52" fill="#000"/>
  <path d="M20.5 32L22 45M43.5 32L42 45M25 25L20.5 32M39 25L43.5 32M27.5 33.5L27.5 39.5M36.5 33.5L36.5 39.5" fill="none" stroke="#000" stroke-width="2" stroke-linecap="round"/>
</svg>
