<svg xmlns="http://www.w3.org/2000/svg" viewBox="0 0 64 64">
  <circle cx="32" cy="32" r="30" fill="#ffffff" stroke="#111111" stroke-width="3" />
  <polygon points="32,20 40,26 37,36 27,36 24,26" fill="#111111" />
  <polygon points="14,24 23,20 24,26 18,33 12,30" fill="#111111" />
  <polygon points="50,24 41,20 40,26 46,33 52,30" fill="#111111" />
  <polygon points="19,47 27,42 37,42 45,47 32,56" fill="#111111" />
  <path d="M12 30 L18 33 L19 47 M52 30 L46 33 L45 47 M24 26 L18 33 M40 26 L46 33 M27 36 L27 42 M37 36 L37 42" fill="none" stroke="#111111" stroke-width="2" stroke-linecap="round" />
</svg>
